<svg xmlns="http://www.w3.org/2000/svg" xmlns:xlink="http://www.w3.org/1999/xlink" viewBox="0 0 241.83 241.83"><defs><style>.cls-1{fill:url(#linear-gradient);}.cls-2{fill:#212020;}.cls-3{fill:url(#linear-gradient-2);}</style><linearGradient id="linear-gradient" x1="44.69" y1="15.63" x2="259.34" y2="312.12" gradientUnits="userSpaceOnUse"><stop offset="0.11" stop-color="#fff"/><stop offset="0.27" stop-color="#f4f6f9"/><stop offset="0.79" stop-color="#d3dbe7"/></linearGradient><linearGradient id="linear-gradient-2" x1="122.65" y1="228.62" x2="122.65" y2="13.21" gradientUnits="userSpaceOnUse"><stop offset="0.14" stop-color="#cdcacb"/><stop offset="0.79" stop-color="#cdcacb"/></linearGradient></defs><title>Asset 18</title><g id="Layer_2" data-name="Layer 2"><g id="Layer_1-2" data-name="Layer 1"><circle class="cls-1" cx="120.92" cy="120.92" r="120.92"/><circle class="cls-2" cx="120.92" cy="120.92" r="104.2"/><path class="cls-3" d="M16.77,117.4A106,106,0,0,1,199.24,47.71a106,106,0,0,1-5.11,151.54A106,106,0,0,1,16.77,117.4Zm0,0a104.34,104.34,0,0,0,6.7,40.08,102.52,102.52,0,1,0,2.68-79.61A104.25,104.25,0,0,0,16.77,117.4Z"/><image width="280" height="284" transform="translate(52.61 51.63) scale(0.49)" xlink:href="../../../pro-6.png"/></g></g></svg>